<svg id="visual" viewBox="0 0 960 540" width="960" height="540" xmlns="http://www.w3.org/2000/svg" xmlns:xlink="http://www.w3.org/1999/xlink" version="1.1"><rect x="0" y="0" width="960" height="540" fill="#ffffff"></rect><defs><linearGradient id="grad1_0" x1="43.8%" y1="100%" x2="100%" y2="0%"><stop offset="14.444444444444446%" stop-color="#ffffff" stop-opacity="1"></stop><stop offset="85.55555555555554%" stop-color="#ffffff" stop-opacity="1"></stop></linearGradient></defs><defs><linearGradient id="grad2_0" x1="0%" y1="100%" x2="56.3%" y2="0%"><stop offset="14.444444444444446%" stop-color="#ffffff" stop-opacity="1"></stop><stop offset="85.55555555555554%" stop-color="#ffffff" stop-opacity="1"></stop></linearGradient></defs><g transform="translate(960, 540)"><path d="M-216 0C-195.8 -23.8 -175.6 -47.7 -159.8 -66.2C-144 -84.7 -132.6 -98 -122.3 -122.3C-112 -146.7 -102.9 -182.1 -82.7 -199.6C-62.5 -217 -31.2 -216.5 0 -216L0 0Z" fill="#0066FF"></path></g><g transform="translate(0, 0)"><path d="M216 0C215.6 30.8 215.2 61.6 199.6 82.7C183.9 103.7 152.9 115 130.8 130.8C108.8 146.7 95.7 167 75.4 182C55.1 197 27.5 206.5 0 216L0 0Z" fill="#0066FF"></path></g></svg>