<?xml version="1.0" encoding="UTF-8" standalone="no"?>
<!-- Created with Inkscape (http://www.inkscape.org/) -->

<svg
   width="131.17076mm"
   height="36.242683mm"
   viewBox="0 0 131.17076 36.242683"
   version="1.1"
   id="svg1"
   xml:space="preserve"
   xmlns="http://www.w3.org/2000/svg"
   xmlns:svg="http://www.w3.org/2000/svg"><defs
     id="defs1" /><g
     id="layer1"
     transform="translate(-34.84129,-130.37867)"><g
       id="g6"><path
         style="fill:#000000"
         d="m 153.33807,158.43488 -1.13423,-0.51478 0.55549,-1.08885 c 0.4301,-0.84306 0.65627,-1.04388 1.00194,-0.88961 0.24555,0.10958 0.95903,0.25103 1.58552,0.31433 1.24275,0.12557 1.92026,-0.28104 2.57366,-1.54458 0.32746,-0.63324 0.21152,-0.94713 -1.71052,-4.63083 -1.83294,-3.51295 -2.14659,-3.96639 -2.82576,-4.08512 -0.68426,-0.11963 -0.77244,-0.25073 -0.84531,-1.25677 l -0.0814,-1.12321 h 3.05792 3.05792 v 1.05833 c 0,0.9525 -0.0661,1.05833 -0.66146,1.05833 -0.3638,0 -0.66146,0.10182 -0.66146,0.22626 0,0.12444 0.51378,1.32528 1.14172,2.66854 l 1.14172,2.44227 1.11122,-2.47009 c 0.61117,-1.35856 1.10942,-2.5594 1.10724,-2.66854 -0.002,-0.10914 -0.30164,-0.19844 -0.66544,-0.19844 -0.59531,0 -0.66146,-0.10583 -0.66146,-1.05833 v -1.05833 h 2.79334 2.79334 l -0.0814,1.12321 c -0.0725,1.00114 -0.16313,1.13772 -0.83377,1.25677 -0.68961,0.12241 -0.94018,0.54615 -3.00183,5.07639 -1.33113,2.92501 -2.63759,5.39632 -3.20028,6.0537 -1.58636,1.85331 -3.41099,2.28325 -5.55679,1.30935 z m -34.61561,-0.49135 c -0.59918,-0.28186 -1.28379,-0.78998 -1.52135,-1.12915 -0.57781,-0.82492 -0.54623,-2.13434 0.0704,-2.91821 0.43906,-0.55818 0.45571,-0.70228 0.13229,-1.14459 -0.59387,-0.81216 -0.44313,-1.89068 0.39817,-2.84886 0.68696,-0.78241 0.72892,-0.9286 0.39687,-1.3827 -0.50111,-0.68531 -0.46866,-2.14456 0.0679,-3.05286 0.77416,-1.31054 2.32723,-1.9818 4.5879,-1.98297 1.74313,-9e-4 2.04351,-0.074 2.47076,-0.60162 0.586,-0.72361 1.79929,-1.38378 2.54318,-1.38378 0.46635,0 0.54231,0.16677 0.54231,1.19063 0,1.02686 -0.0752,1.19062 -0.54656,1.19062 -0.30061,0 -0.77362,0.12152 -1.05113,0.27004 -0.49518,0.26501 -0.49487,0.28593 0.0164,1.12448 1.68477,2.76318 -0.80305,5.70568 -4.58346,5.42114 -0.90226,-0.0679 -1.83347,-0.2073 -2.06935,-0.30977 -0.5631,-0.24461 -0.88641,0.56573 -0.44021,1.10336 0.26895,0.32407 0.811,0.37195 2.90468,0.25658 4.22063,-0.23257 5.78647,0.47705 5.81627,2.63584 0.02,1.44838 -0.62344,2.31785 -2.33495,3.15521 -1.98354,0.97046 -5.7603,1.17798 -7.40008,0.40661 z m 6.0927,-2.26253 c 1.11846,-0.46732 1.38592,-0.89495 0.87766,-1.40321 -0.3337,-0.33369 -0.90457,-0.36782 -3.47089,-0.20747 -2.72579,0.17032 -3.07151,0.24622 -3.07151,0.67436 0,0.26534 0.26462,0.66778 0.58804,0.89432 0.75271,0.52721 3.85401,0.55287 5.0767,0.042 z m -0.63765,-7.56763 c 1.11039,-1.11039 0.2396,-2.64583 -1.50052,-2.64583 -0.53425,0 -1.18909,0.19705 -1.45521,0.43788 -0.59361,0.53721 -0.62947,1.75996 -0.0681,2.32135 0.60457,0.60457 2.37212,0.53829 3.02381,-0.1134 z m -18.19305,5.74829 c -4.47478,-1.70611 -5.09258,-7.42469 -1.05175,-9.73548 1.67314,-0.95681 4.36014,-0.91628 6.07474,0.0916 3.47147,2.04064 3.56003,6.9025 0.16395,9.00082 -1.42965,0.88333 -3.78941,1.17587 -5.18694,0.64304 z m 3.39104,-2.31655 c 0.7658,-0.40984 1.30826,-1.6712 1.30826,-3.04207 0,-1.67784 -1.04257,-2.77092 -2.64288,-2.77092 -1.38942,0 -2.00423,0.33231 -2.54323,1.37461 -1.05269,2.03569 0.32697,4.71081 2.42955,4.71081 0.51659,0 1.16833,-0.12259 1.4483,-0.27243 z m -35.204244,1.22521 v -1.21736 h 1.190625 1.190625 v -5.02709 -5.02708 h -1.190625 -1.190625 v -1.35427 -1.35428 l 5.095949,0.1048 c 4.501583,0.0926 5.219069,0.16835 6.151562,0.64968 1.383783,0.71429 2.246243,2.00094 2.246243,3.35103 0,1.14401 -0.78822,2.67611 -1.52155,2.95751 -0.349907,0.13427 -0.202697,0.28549 0.64927,0.66692 1.30816,0.58568 1.931021,1.62947 1.929621,3.2337 -0.001,1.5856 -0.792981,2.76654 -2.321171,3.46278 -1.121786,0.51108 -1.811721,0.57968 -6.73982,0.67019 l -5.490104,0.10083 z m 10.787864,-1.9259 c 0.784929,-0.58547 0.982593,-1.12355 0.751286,-2.04515 -0.221384,-0.88207 -1.248108,-1.21506 -3.746391,-1.21506 h -2.236509 v 2.01755 2.01756 l 2.255052,-0.11836 c 1.725835,-0.0906 2.424376,-0.24466 2.976562,-0.65654 z m -0.824397,-6.32046 c 0.549161,-0.54916 0.647365,-0.84007 0.513576,-1.52135 -0.240821,-1.22631 -0.792023,-1.50382 -2.986988,-1.50382 h -1.933805 v 1.85208 1.85209 h 1.86411 c 1.648446,0 1.942665,-0.0786 2.543107,-0.679 z m 8.028198,8.21962 v -1.19062 h 1.05834 1.05833 v -5.15938 -5.15937 h -1.07355 -1.07354 l 0.0814,-1.12448 0.0814,-1.12448 h 2.381247 2.38125 l 0.0709,6.28385 0.0709,6.28386 h 1.05354 1.05355 v 1.19062 1.19063 h -3.57188 -3.571867 z m 39.422919,0.008 v -1.1983 h 1.05833 1.05834 v -2.77813 -2.77812 h -1.05834 -1.05833 v -1.19063 -1.19062 h 2.38125 2.38125 v 3.95354 3.95353 l 1.12448,0.0814 c 1.12194,0.0812 1.12448,0.0838 1.12448,1.13969 v 1.05834 l -3.50573,0.0738 -3.50573,0.0738 z m 9.78958,-0.008 v -1.19062 h 1.05834 1.05833 v -2.77813 -2.77812 h -1.05833 -1.05834 v -1.19063 -1.19062 h 1.05834 1.05833 l 0.006,-1.12448 c 0.0139,-2.68732 1.75939,-4.43177 4.43443,-4.43177 1.11733,0 3.76184,0.66216 3.76184,0.94193 0,0.0542 -0.20408,0.52643 -0.45353,1.04951 -0.36148,0.75804 -0.56285,0.91816 -0.99218,0.78894 -2.6147,-0.78697 -3.84595,-0.27752 -3.84595,1.59134 v 1.18453 h 1.45521 1.4552 v 1.19062 1.19063 h -1.4552 -1.45521 v 2.77812 2.77813 h 1.32291 1.32292 v 1.19062 1.19063 h -3.83646 -3.83646 z m -8.02878,-11.46406 c -0.82527,-0.91192 -0.50877,-1.94694 0.74063,-2.42196 1.22386,-0.46531 2.79024,0.41353 2.79024,1.5655 0,1.17849 -2.65633,1.82282 -3.53087,0.85646 z"
         id="path5" /><path
         d="m 36.92053,166.05573 c -0.52991,-0.30728 -1.21452,-1.00537 -1.521355,-1.55131 -0.549308,-0.97736 -0.557882,-1.22424 -0.557882,-16.06486 v -15.07224 l 0.601609,-0.89273 c 0.330885,-0.491 1.003336,-1.16345 1.494336,-1.49433 l 0.892727,-0.60161 h 13.283204 13.283204 l 0.874695,0.59531 c 0.481083,0.32742 1.123768,0.93138 1.42819,1.34213 0.544443,0.73461 0.554679,0.9956 0.625956,15.96003 0.07204,15.1249 0.06917,15.21907 -0.494212,16.22147 -0.31167,0.55454 -1.015332,1.26042 -1.563693,1.56862 -0.978905,0.55017 -1.236753,0.56024 -14.190164,0.55428 -12.939297,-0.006 -13.211681,-0.0168 -14.156615,-0.56476 z m 24.326181,-6.36125 c 0.174625,-0.17462 0.3175,-0.62706 0.3175,-1.00542 0,-0.37835 -0.142875,-0.83079 -0.3175,-1.00541 -0.235588,-0.23559 -2.862025,-0.3175 -10.180359,-0.3175 h -9.86286 l -0.433404,0.66146 c -0.401483,0.61274 -0.401483,0.71017 0,1.32291 l 0.433404,0.66146 h 9.86286 c 7.318334,0 9.944771,-0.0819 10.180359,-0.3175 z m -0.194273,-5.51264 c 0.580025,-0.31042 0.69737,-1.55134 0.194273,-2.05444 -0.235588,-0.23559 -2.862025,-0.3175 -10.180359,-0.3175 h -9.86286 l -0.433404,0.66146 c -0.401483,0.61274 -0.401483,0.71017 0,1.32291 l 0.433404,0.66146 h 9.668587 c 6.158827,0 9.854363,-0.0994 10.180359,-0.27389 z m -0.999613,-6.62782 c 1.338268,-0.60976 1.643677,-1.63797 1.643677,-5.5337 0,-2.95191 -0.08342,-3.72475 -0.480593,-4.45262 -0.843674,-1.54612 -1.383488,-1.63285 -10.160388,-1.63239 -8.851698,4.6e-4 -9.298166,0.0814 -10.207769,1.85167 -0.402695,0.78371 -0.463696,1.47505 -0.396875,4.49792 0.08427,3.81199 0.28889,4.47856 1.598033,5.20561 0.788301,0.4378 17.056495,0.49518 18.003915,0.0635 z M 43.360877,145.1424 c -0.435409,-0.43541 -0.435409,-5.80876 0,-6.24417 0.45298,-0.45298 15.051604,-0.45298 15.504584,0 0.435409,0.43541 0.435409,5.80876 0,6.24417 -0.45298,0.45298 -15.051604,0.45298 -15.504584,0 z"
         style="fill:#0066ff;fill-opacity:1"
         id="path1" /></g></g></svg>
